<?xml version="1.0" standalone="no"?>
<!DOCTYPE svg PUBLIC "-//W3C//DTD SVG 20010904//EN"
 "http://www.w3.org/TR/2001/REC-SVG-20010904/DTD/svg10.dtd">
<svg version="1.0" xmlns="http://www.w3.org/2000/svg"
 width="700.000000pt" height="700.000000pt" viewBox="0 0 700.000000 700.000000"
 preserveAspectRatio="xMidYMid meet">
<metadata>
Created by potrace 1.11, written by Peter Selinger 2001-2013
</metadata>
<g transform="translate(0.000000,700.000000) scale(0.100000,-0.100000)"
fill="#000000" stroke="none">
<path d="M3285 6724 c-803 -63 -1508 -385 -2066 -943 -518 -519 -823 -1140
-925 -1886 -25 -179 -25 -607 -1 -785 86 -628 314 -1164 700 -1645 104 -129
344 -369 472 -472 481 -385 1019 -615 1640 -699 182 -25 608 -25 790 0 620 84
1162 315 1640 699 128 103 369 344 472 472 387 482 611 1010 700 1646 24 175
24 603 -1 784 -103 756 -427 1406 -957 1920 -509 494 -1147 800 -1853 891
-116 14 -506 26 -611 18z m525 -809 c205 -26 481 -100 642 -173 l61 -27 -85
-33 c-289 -110 -553 -279 -787 -507 -364 -354 -596 -796 -682 -1300 -26 -155
-36 -451 -20 -606 92 -875 645 -1617 1451 -1944 63 -26 116 -49 118 -50 6 -5
-210 -87 -308 -116 -228 -69 -441 -99 -700 -99 -286 0 -499 34 -762 120 -254
84 -493 209 -708 371 -515 388 -850 958 -947 1608 -22 146 -24 513 -4 646 33
226 82 411 157 597 414 1032 1470 1653 2574 1513z m1022 -1320 c164 -28 336
-98 455 -183 l52 -38 -780 -779 -779 -780 -24 30 c-74 91 -161 286 -192 427
-24 115 -29 286 -10 402 78 472 436 835 908 921 99 18 268 18 370 0z m733
-462 c48 -65 118 -211 148 -308 74 -237 59 -523 -39 -757 -31 -75 -95 -187
-129 -225 l-24 -28 -343 342 -343 343 340 340 c187 187 343 340 347 340 4 0
24 -21 43 -47z m-568 -1165 l341 -341 -36 -27 c-113 -81 -277 -154 -417 -186
-109 -25 -349 -26 -457 -2 -148 33 -344 121 -434 193 l-29 24 340 340 c187
188 342 341 345 341 3 0 159 -154 347 -342z"/>
</g>
</svg>
